<?xml version="1.0" encoding="utf-8"?>
<!-- Generator: Adobe Illustrator 24.1.2, SVG Export Plug-In . SVG Version: 6.00 Build 0)  -->
<svg version="1.1" id="Capa_1" xmlns="http://www.w3.org/2000/svg" xmlns:xlink="http://www.w3.org/1999/xlink" x="0px" y="0px"
	 viewBox="0 0 318 84.6" style="enable-background:new 0 0 318 84.6;" xml:space="preserve">
<style type="text/css">
	.st0{opacity:0.21;fill:#ADFF2F;}
	.st1{opacity:0.4;fill:#ADFF2F;}
	.st2{opacity:0.6;fill:#ADFF2F;}
	.st3{fill:#ADFF2F;}
</style>
<g id="BACKGROUND">
</g>
<path class="st0" d="M4.2,4.2l2,53c0.1,1.9,1.7,3.3,3.5,3.2l52.7-4c1.8-0.1,3.1-1.6,3-3.4L63.6,3.2c0-1.9-1.6-3.3-3.5-3.2L4.2,4.2"
	/>
<polyline class="st1" points="4.2,4.2 6.3,60.6 56.7,65.2 54.6,8.8 4.2,4.2 "/>
<polyline class="st2" points="4.2,4.2 6.3,60.6 48,76 45.8,19.7 4.2,4.2 "/>
<path class="st3" d="M4.2,4.2l2.1,55.6c0,0.5,0.3,1,0.7,1.4l26.7,22.7c2.1,1.8,5.4,0.2,5.3-2.6l-1.8-47.7c0-0.9-0.4-1.7-1.1-2.3
	L4.2,4.2"/>
<g>
	<g>
		<path class="st3" d="M114.9,14.3c0.8,1,1.2,2.2,1.2,3.6c0,2.1-0.9,3.7-2.6,4.8s-4.2,1.7-7.5,1.7H92.7V0.7h12.7
			c3.2,0,5.5,0.6,7.2,1.7c1.6,1.1,2.4,2.6,2.4,4.5c0,1.1-0.3,2.1-0.8,3c-0.6,0.9-1.4,1.6-2.5,2.1C113,12.6,114.1,13.3,114.9,14.3z
			 M100.5,6.3v3.5h3.7c1.7,0,2.6-0.6,2.6-1.8s-0.9-1.8-2.6-1.8h-3.7V6.3z M108,17c0-1.2-0.9-1.9-2.6-1.9h-4.8v3.7h4.8
			C107.1,18.8,108,18.2,108,17z"/>
		<path class="st3" d="M118.8,0.7h8v23.7h-8V0.7z"/>
		<path class="st3" d="M152.9,14.3c0.8,1,1.2,2.2,1.2,3.6c0,2.1-0.9,3.7-2.6,4.8c-1.7,1.1-4.2,1.7-7.5,1.7h-13.3V0.7h12.7
			c3.2,0,5.5,0.6,7.2,1.7c1.6,1.1,2.4,2.6,2.4,4.5c0,1.1-0.3,2.1-0.8,3c-0.6,0.9-1.4,1.6-2.5,2.1C151.1,12.6,152.1,13.3,152.9,14.3z
			 M138.6,6.3v3.5h3.7c1.7,0,2.6-0.6,2.6-1.8s-0.9-1.8-2.6-1.8h-3.7V6.3z M146,17c0-1.2-0.9-1.9-2.6-1.9h-4.8v3.7h4.8
			C145.1,18.8,146,18.2,146,17z"/>
		<path class="st3" d="M156.9,0.7h8v17.5h10.7v6.2h-18.7V0.7z"/>
		<path class="st3" d="M177.8,0.7h8v23.7h-8V0.7z"/>
		<path class="st3" d="M195.2,23.4c-2-1.1-3.6-2.5-4.8-4.4s-1.7-4-1.7-6.4s0.6-4.5,1.7-6.4c1.2-1.9,2.7-3.4,4.8-4.4
			c2-1.1,4.3-1.6,6.9-1.6s4.8,0.5,6.9,1.6c2,1.1,3.6,2.5,4.8,4.4s1.7,4,1.7,6.4s-0.6,4.5-1.7,6.4c-1.2,1.9-2.7,3.4-4.8,4.4
			c-2,1.1-4.3,1.6-6.9,1.6S197.2,24.4,195.2,23.4z M204.8,17.8c0.8-0.5,1.4-1.2,1.9-2.1s0.7-1.9,0.7-3.1s-0.2-2.2-0.7-3.1
			c-0.5-0.9-1.1-1.6-1.9-2.1c-0.8-0.5-1.7-0.7-2.7-0.7s-1.9,0.2-2.7,0.7s-1.4,1.2-1.9,2.1s-0.7,1.9-0.7,3.1s0.2,2.2,0.7,3.1
			c0.5,0.9,1.1,1.6,1.9,2.1c0.8,0.5,1.7,0.7,2.7,0.7S204,18.3,204.8,17.8z"/>
		<path class="st3" d="M223.2,6.9h-6.9V0.7h21.9v6.2h-6.9v17.5h-8V6.9H223.2z"/>
		<path class="st3" d="M259.9,18.4v6h-19.7V0.7h19.3v6H248v2.8h10v5.8h-10v3.1H259.9z"/>
		<path class="st3" d="M268.5,23.4c-2-1-3.6-2.5-4.7-4.4s-1.7-4-1.7-6.4s0.6-4.5,1.7-6.4s2.7-3.4,4.7-4.4c2-1.1,4.3-1.6,6.8-1.6
			c2.3,0,4.4,0.4,6.2,1.2s3.3,2,4.5,3.5l-5,4.5c-1.5-1.9-3.2-2.8-5.2-2.8c-1.7,0-3,0.5-4,1.6s-1.5,2.5-1.5,4.3s0.5,3.2,1.5,4.3
			s2.4,1.6,4,1.6c2,0,3.7-0.9,5.2-2.8l5,4.5c-1.2,1.5-2.7,2.7-4.5,3.5s-3.9,1.2-6.2,1.2C272.7,25,270.5,24.4,268.5,23.4z"/>
		<path class="st3" d="M304,20.3h-9l-1.6,4.1h-8.1l10.4-23.7h7.9L314,24.4h-8.3L304,20.3z M301.8,14.5l-2.3-6l-2.3,6H301.8z"/>
	</g>
</g>
<g>
	<g>
		<path class="st3" d="M128,39.2v41.6h-3.6L97.6,47.1v33.8h-4.4V39.2h3.6L123.7,73V39.2H128z"/>
		<path class="st3" d="M148.6,78.4c-3.3-1.8-6-4.4-7.8-7.6C138.9,67.6,138,64,138,60s0.9-7.6,2.8-10.8c1.9-3.2,4.5-5.7,7.8-7.6
			c3.3-1.8,7.1-2.8,11.2-2.8c4.1,0,7.8,0.9,11.1,2.7s5.9,4.3,7.8,7.6c1.9,3.2,2.9,6.8,2.9,10.8s-1,7.6-2.9,10.8s-4.5,5.8-7.8,7.6
			c-3.3,1.8-7,2.7-11.1,2.7C155.6,81.2,151.9,80.3,148.6,78.4z M168.7,75c2.7-1.5,4.7-3.5,6.2-6.2c1.5-2.6,2.3-5.6,2.3-8.8
			s-0.8-6.2-2.3-8.8s-3.6-4.7-6.2-6.2c-2.7-1.5-5.6-2.2-8.9-2.2c-3.3,0-6.3,0.7-8.9,2.2c-2.7,1.5-4.8,3.5-6.3,6.2
			c-1.5,2.6-2.3,5.6-2.3,8.8c0,3.3,0.8,6.2,2.3,8.8s3.6,4.7,6.3,6.2s5.7,2.2,8.9,2.2C163,77.3,166,76.5,168.7,75z M164,28.5h5.6
			l-9.6,7.4h-4.2L164,28.5z"/>
		<path class="st3" d="M224.8,39.2l-18.4,41.6H202l-18.4-41.6h4.8l15.9,36.1l16-36.1C220.3,39.2,224.8,39.2,224.8,39.2z"/>
		<path class="st3" d="M230.8,39.2h4.4v41.6h-4.4V39.2z"/>
		<path class="st3" d="M256.8,43h-14.6v-3.8h33.6V43h-14.6v37.8h-4.4V43z"/>
		<path class="st3" d="M306.9,69.7h-23.2l-5,11.1h-4.6l19-41.6h4.3l19,41.6h-4.6L306.9,69.7z M305.3,66.1l-10-22.3l-10,22.3H305.3z"
			/>
	</g>
</g>
</svg>
