<?xml version="1.0" encoding="utf-8"?>
<!-- Generator: Adobe Illustrator 24.1.2, SVG Export Plug-In . SVG Version: 6.00 Build 0)  -->
<svg version="1.1" id="Capa_1" xmlns="http://www.w3.org/2000/svg" xmlns:xlink="http://www.w3.org/1999/xlink" x="0px" y="0px"
	 viewBox="0 0 384 512" style="enable-background:new 0 0 384 512;" xml:space="preserve">
<style type="text/css">
	.st0{fill:#FFFFFF;}
</style>
<path class="st0" d="M16,64C16,28.7,44.7,0,80,0h224c35.3,0,64,28.7,64,64v384c0,35.3-28.7,64-64,64H80c-35.3,0-64-28.7-64-64V64z
	 M144,448c0,8.8,7.2,16,16,16h64c8.8,0,16-7.2,16-16s-7.2-16-16-16h-64C151.2,432,144,439.2,144,448z M304,64H80v320h224V64z"/>
</svg>
