<?xml version="1.0" encoding="utf-8"?>
<!-- Generator: Adobe Illustrator 24.1.2, SVG Export Plug-In . SVG Version: 6.00 Build 0)  -->
<svg version="1.1" xmlns="http://www.w3.org/2000/svg" xmlns:xlink="http://www.w3.org/1999/xlink" x="0px" y="0px"
	 viewBox="0 0 222.9 190.5" style="enable-background:new 0 0 222.9 190.5;" xml:space="preserve">
<style type="text/css">
	.st0{fill:url(#SVGID_1_);}
	.st1{fill:url(#SVGID_2_);}
	.st2{fill:url(#SVGID_3_);}
	.st3{fill:url(#SVGID_4_);}
	.st4{fill:#3DFF8E;}
</style>
<g id="BACKGROUND">
</g>
<g id="OBJECTS">
	<g>
		<linearGradient id="SVGID_1_" gradientUnits="userSpaceOnUse" x1="69.2023" y1="41.7639" x2="151.9949" y2="41.7639">
			<stop  offset="0" style="stop-color:#8CFFEC"/>
			<stop  offset="0.8309" style="stop-color:#9FFFEF"/>
			<stop  offset="1" style="stop-color:#A4FFF0"/>
		</linearGradient>
		<path class="st0" d="M69.2,6.7l2.7,71.5c0.1,2.5,2.3,4.5,4.8,4.3l71.2-5.4c2.4-0.2,4.2-2.2,4.1-4.6l-2.6-67.2
			c-0.1-2.5-2.3-4.5-4.8-4.3L69.2,6.7"/>
		<linearGradient id="SVGID_2_" gradientUnits="userSpaceOnUse" x1="69.2023" y1="47.8921" x2="140.0903" y2="47.8921">
			<stop  offset="0" style="stop-color:#66FFA6"/>
			<stop  offset="0.272" style="stop-color:#6EFFB5"/>
			<stop  offset="0.7894" style="stop-color:#83FFDB"/>
			<stop  offset="1" style="stop-color:#8CFFEC"/>
		</linearGradient>
		<polyline class="st1" points="69.2,6.7 72.1,82.8 140.1,89 137.2,12.9 69.2,6.7 		"/>
		<linearGradient id="SVGID_3_" gradientUnits="userSpaceOnUse" x1="69.2023" y1="55.1929" x2="128.265" y2="55.1929">
			<stop  offset="0" style="stop-color:#2AFF83"/>
			<stop  offset="0.1029" style="stop-color:#31FF87"/>
			<stop  offset="0.691" style="stop-color:#57FF9E"/>
			<stop  offset="1" style="stop-color:#66FFA6"/>
		</linearGradient>
		<polyline class="st2" points="69.2,6.7 72.1,82.8 128.3,103.6 125.4,27.5 69.2,6.7 		"/>
		<linearGradient id="SVGID_4_" gradientUnits="userSpaceOnUse" x1="92.6796" y1="115.2441" x2="92.6796" y2="6.7471">
			<stop  offset="0" style="stop-color:#2AFF83"/>
			<stop  offset="7.232857e-02" style="stop-color:#3AE790"/>
			<stop  offset="0.2478" style="stop-color:#5CB2AE"/>
			<stop  offset="0.4198" style="stop-color:#7986C6"/>
			<stop  offset="0.5845" style="stop-color:#8F64D9"/>
			<stop  offset="0.74" style="stop-color:#9F4BE7"/>
			<stop  offset="0.8825" style="stop-color:#A93CEF"/>
			<stop  offset="1" style="stop-color:#AC37F2"/>
		</linearGradient>
		<path class="st3" d="M69.2,6.7l2.9,75c0,0.7,0.4,1.4,0.9,1.9l36,30.6c2.9,2.4,7.3,0.3,7.1-3.5l-2.5-64.3c0-1.2-0.6-2.4-1.5-3.1
			L69.2,6.7"/>
	</g>
	<g>
		<g>
			<path class="st4" d="M22.2,138.4c0.8,1,1.2,2.2,1.2,3.6c0,2.1-0.9,3.7-2.6,4.8c-1.7,1.1-4.2,1.7-7.5,1.7H0v-23.7h12.7
				c3.2,0,5.5,0.6,7.2,1.7c1.6,1.1,2.4,2.6,2.4,4.5c0,1.1-0.3,2.1-0.8,3c-0.6,0.9-1.4,1.6-2.5,2.1C20.4,136.6,21.5,137.4,22.2,138.4
				z M7.9,130.4v3.5h3.7c1.7,0,2.6-0.6,2.6-1.8c0-1.2-0.9-1.8-2.6-1.8H7.9z M15.3,141.1c0-1.2-0.9-1.9-2.6-1.9H7.9v3.7h4.8
				C14.4,142.9,15.3,142.3,15.3,141.1z"/>
			<path class="st4" d="M26.2,124.8h8v23.7h-8V124.8z"/>
			<path class="st4" d="M60.3,138.4c0.8,1,1.2,2.2,1.2,3.6c0,2.1-0.9,3.7-2.6,4.8c-1.7,1.1-4.2,1.7-7.5,1.7H38v-23.7h12.7
				c3.2,0,5.5,0.6,7.2,1.7c1.6,1.1,2.4,2.6,2.4,4.5c0,1.1-0.3,2.1-0.8,3c-0.6,0.9-1.4,1.6-2.5,2.1C58.4,136.6,59.5,137.4,60.3,138.4
				z M45.9,130.4v3.5h3.7c1.7,0,2.6-0.6,2.6-1.8c0-1.2-0.9-1.8-2.6-1.8H45.9z M53.4,141.1c0-1.2-0.9-1.9-2.6-1.9h-4.8v3.7h4.8
				C52.5,142.9,53.4,142.3,53.4,141.1z"/>
			<path class="st4" d="M64.2,124.8h8v17.5h10.7v6.2H64.2V124.8z"/>
			<path class="st4" d="M85.1,124.8h8v23.7h-8V124.8z"/>
			<path class="st4" d="M102.5,147.5c-2-1.1-3.6-2.5-4.8-4.4s-1.7-4-1.7-6.4c0-2.4,0.6-4.5,1.7-6.4c1.2-1.9,2.7-3.4,4.8-4.4
				c2-1.1,4.3-1.6,6.9-1.6s4.8,0.5,6.9,1.6c2,1.1,3.6,2.5,4.8,4.4c1.2,1.9,1.7,4,1.7,6.4c0,2.4-0.6,4.5-1.7,6.4
				c-1.2,1.9-2.7,3.4-4.8,4.4c-2,1.1-4.3,1.6-6.9,1.6S104.6,148.5,102.5,147.5z M112.1,141.8c0.8-0.5,1.4-1.2,1.9-2.1
				c0.5-0.9,0.7-1.9,0.7-3.1c0-1.2-0.2-2.2-0.7-3.1c-0.5-0.9-1.1-1.6-1.9-2.1c-0.8-0.5-1.7-0.7-2.7-0.7c-1,0-1.9,0.2-2.7,0.7
				c-0.8,0.5-1.4,1.2-1.9,2.1s-0.7,1.9-0.7,3.1c0,1.2,0.2,2.2,0.7,3.1c0.5,0.9,1.1,1.6,1.9,2.1c0.8,0.5,1.7,0.7,2.7,0.7
				C110.4,142.6,111.3,142.3,112.1,141.8z"/>
			<path class="st4" d="M130.5,131h-6.9v-6.2h21.9v6.2h-6.9v17.5h-8V131z"/>
			<path class="st4" d="M167.2,142.5v6h-19.7v-23.7h19.3v6h-11.4v2.8h10v5.8h-10v3.1H167.2z"/>
			<path class="st4" d="M175.8,147.5c-2-1-3.6-2.5-4.7-4.4c-1.1-1.9-1.7-4-1.7-6.4c0-2.4,0.6-4.5,1.7-6.4c1.1-1.9,2.7-3.4,4.7-4.4
				c2-1.1,4.3-1.6,6.8-1.6c2.3,0,4.4,0.4,6.2,1.2s3.3,2,4.5,3.5l-5,4.5c-1.5-1.9-3.2-2.8-5.2-2.8c-1.7,0-3,0.5-4,1.6
				c-1,1.1-1.5,2.5-1.5,4.3c0,1.8,0.5,3.2,1.5,4.3c1,1.1,2.4,1.6,4,1.6c2,0,3.7-0.9,5.2-2.8l5,4.5c-1.2,1.5-2.7,2.7-4.5,3.5
				c-1.8,0.8-3.9,1.2-6.2,1.2C180.1,149,177.8,148.5,175.8,147.5z"/>
			<path class="st4" d="M211.3,144.4h-9l-1.6,4.1h-8.1l10.4-23.7h7.9l10.4,23.7h-8.3L211.3,144.4z M209.1,138.6l-2.3-6l-2.3,6H209.1
				z"/>
		</g>
		<g>
			<path class="st4" d="M55.5,160.5v29.8h-2.6l-19.2-24.2v24.2h-3.2v-29.8h2.6l19.2,24.2v-24.2H55.5z"/>
			<path class="st4" d="M70.2,188.5c-2.4-1.3-4.3-3.1-5.6-5.4c-1.3-2.3-2-4.9-2-7.8c0-2.9,0.7-5.5,2-7.8c1.3-2.3,3.2-4.1,5.6-5.4
				c2.4-1.3,5.1-2,8-2c3,0,5.6,0.7,8,2c2.4,1.3,4.2,3.1,5.6,5.4c1.4,2.3,2,4.9,2,7.8c0,2.9-0.7,5.5-2,7.8c-1.4,2.3-3.2,4.1-5.6,5.4
				c-2.4,1.3-5,2-8,2C75.3,190.5,72.6,189.9,70.2,188.5z M84.7,186.1c1.9-1.1,3.4-2.5,4.5-4.4c1.1-1.9,1.6-4,1.6-6.3
				c0-2.3-0.5-4.4-1.6-6.3c-1.1-1.9-2.6-3.4-4.5-4.4c-1.9-1.1-4-1.6-6.4-1.6c-2.4,0-4.5,0.5-6.4,1.6c-1.9,1.1-3.4,2.5-4.5,4.4
				c-1.1,1.9-1.6,4-1.6,6.3c0,2.3,0.5,4.4,1.6,6.3c1.1,1.9,2.6,3.4,4.5,4.4s4.1,1.6,6.4,1.6C80.6,187.7,82.8,187.2,84.7,186.1z
				 M81.3,152.7h4l-6.9,5.3h-3L81.3,152.7z"/>
			<path class="st4" d="M124.9,160.5l-13.2,29.8h-3.1l-13.2-29.8h3.4l11.4,25.9l11.5-25.9H124.9z"/>
			<path class="st4" d="M129.2,160.5h3.2v29.8h-3.2V160.5z"/>
			<path class="st4" d="M147.8,163.2h-10.5v-2.7h24.1v2.7H151v27.1h-3.2V163.2z"/>
			<path class="st4" d="M183.7,182.3h-16.6l-3.6,8h-3.3l13.6-29.8h3.1l13.6,29.8h-3.3L183.7,182.3z M182.5,179.7l-7.2-16l-7.2,16
				H182.5z"/>
		</g>
	</g>
</g>
</svg>
